<svg xmlns:xlink="http://www.w3.org/1999/xlink" width="496.711" xmlns="http://www.w3.org/2000/svg" height="317.539" id="screenshot-50f6540c-57f9-80e3-8001-dd6dca60321c" viewBox="-8 -8 496.711 317.539" style="-webkit-print-color-adjust: exact;" fill="none" version="1.1"><g id="shape-50f6540c-57f9-80e3-8001-dd6dca60321c" rx="0" ry="0"><g id="shape-50f6540c-57f9-80e3-8001-dd6d21ab0f84"><g id="fills-50f6540c-57f9-80e3-8001-dd6d21ab0f84"><path rx="0" ry="0" d="M281.221,136L216.828,200.976L171.196,200.976C161.449,238.367,127.426,266,87,266C38.983,266,0,227.017,0,179C0,130.983,38.983,92,87,92C112.134,92,134.792,102.681,150.681,119.748" style="opacity: 1;"/></g><g id="strokes-50f6540c-57f9-80e3-8001-dd6d21ab0f84"><g class="stroke-shape"><path rx="0" ry="0" d="M281.221,136L216.828,200.976L171.196,200.976C161.449,238.367,127.426,266,87,266C38.983,266,0,227.017,0,179C0,130.983,38.983,92,87,92C112.134,92,134.792,102.681,150.681,119.748" style="opacity: 1; fill: none; stroke-width: 16; stroke: rgb(0, 0, 0); stroke-opacity: 1; stroke-linecap: round;"/></g></g></g><g id="shape-50f6540c-57f9-80e3-8001-dd6d21ab0f85"><g id="fills-50f6540c-57f9-80e3-8001-dd6d21ab0f85"><path rx="0" ry="0" d="M88,179.176C88,179.176,159.745,173.03,193.362,163.242C256.556,144.842,277.377,88,277.377,88L357.984,179.176" style="opacity: 1;"/></g><g id="strokes-50f6540c-57f9-80e3-8001-dd6d21ab0f85"><g class="stroke-shape"><path rx="0" ry="0" d="M88,179.176C88,179.176,159.745,173.03,193.362,163.242C256.556,144.842,277.377,88,277.377,88L357.984,179.176" style="opacity: 1; fill: none; stroke-width: 16; stroke: rgb(224, 0, 0); stroke-opacity: 1; stroke-linecap: round;"/></g></g></g><g id="shape-50f6540c-57f9-80e3-8001-dd6d21ab0f86"><g id="fills-50f6540c-57f9-80e3-8001-dd6d21ab0f86"><path rx="0" ry="0" d="M131,47.91L157.808,46L191.726,163.475" style="opacity: 1;"/></g><g id="strokes-50f6540c-57f9-80e3-8001-dd6d21ab0f86"><g class="stroke-shape"><path rx="0" ry="0" d="M131,47.91L157.808,46L191.726,163.475" style="opacity: 1; fill: none; stroke-width: 16; stroke: rgb(224, 0, 0); stroke-opacity: 1; stroke-linecap: round;"/></g></g></g><g id="shape-50f6540c-57f9-80e3-8001-dd6d21ab0f88"><g id="fills-50f6540c-57f9-80e3-8001-dd6d21ab0f88"><path rx="0" ry="0" d="M287.82,1.786C318.202,101.062,322.49,99.026,326.891,97.356C331.878,95.464,337.011,94.044,342.219,93.098C367.826,88.445,395.239,95.272,416.058,114.017C451.741,146.147,454.626,201.202,422.497,236.885C390.368,272.569,335.312,275.454,299.629,243.325C280.951,226.507,271.259,203.408,270.872,180.093C270.618,164.858,274.338,149.53,282.121,135.803" style="opacity: 1;"/></g><g id="strokes-50f6540c-57f9-80e3-8001-dd6d21ab0f88"><g class="stroke-shape"><defs><marker refX="2" fill-opacity="1" orient="auto-start-reverse" id="marker-c54b7b7b-8f6c-80f0-8001-dd6dd0e1303b-line-arrow" viewBox="0 0 3 6" fill="#000000" refY="3" markerWidth="8.5" markerHeight="8.5"><path d="M 0.5 0.5 L 3 3 L 0.5 5.5 L 0 5 L 2 3 L 0 1 z"/></marker><marker refX="3" fill-opacity="1" orient="auto-start-reverse" id="marker-c54b7b7b-8f6c-80f0-8001-dd6dd0e1303b-round" viewBox="0 0 6 6" fill="#000000" refY="3" markerWidth="6" markerHeight="6"><path d="M 3 2.5 A 0.5 0.5 0 0 1 3 3.5 "/></marker></defs><path rx="0" ry="0" d="M287.82,1.786C318.202,101.062,322.49,99.026,326.891,97.356C331.878,95.464,337.011,94.044,342.219,93.098C367.826,88.445,395.239,95.272,416.058,114.017C451.741,146.147,454.626,201.202,422.497,236.885C390.368,272.569,335.312,275.454,299.629,243.325C280.951,226.507,271.259,203.408,270.872,180.093C270.618,164.858,274.338,149.53,282.121,135.803" style="opacity: 1; fill: none; stroke-width: 16; stroke: rgb(0, 0, 0); stroke-opacity: 1; marker-start: url(&quot;#marker-c54b7b7b-8f6c-80f0-8001-dd6dd0e1303b-line-arrow&quot;); marker-end: url(&quot;#marker-c54b7b7b-8f6c-80f0-8001-dd6dd0e1303b-round&quot;);"/></g></g></g></g></svg>