<?xml version="1.0" standalone="no"?>
<!DOCTYPE svg PUBLIC "-//W3C//DTD SVG 20010904//EN"
 "http://www.w3.org/TR/2001/REC-SVG-20010904/DTD/svg10.dtd">
<svg version="1.0" xmlns="http://www.w3.org/2000/svg"
 width="500.000000pt" height="500.000000pt" viewBox="0 0 500.000000 500.000000"
 preserveAspectRatio="xMidYMid meet">
<metadata>
Created by potrace 1.14, written by Peter Selinger 2001-2017
</metadata>
<g transform="translate(0.000000,500.000000) scale(0.100000,-0.100000)"
fill="#000000" stroke="none">
<path d="M3078 4012 c-8 -15 -55 -101 -103 -192 -138 -262 -175 -330 -216
-407 -22 -39 -39 -74 -39 -77 0 -12 132 -78 140 -70 10 11 46 79 145 269 43
83 83 158 90 167 9 14 22 -19 74 -180 180 -565 250 -717 338 -736 17 -4 54 1
93 14 36 12 81 23 100 26 19 3 41 7 49 10 20 6 180 6 226 -1 76 -11 180 -47
255 -87 213 -114 358 -312 404 -553 14 -76 15 -225 2 -285 -73 -324 -292 -552
-602 -626 -110 -26 -278 -22 -387 10 -176 52 -307 140 -411 276 -119 156 -167
306 -162 505 4 135 20 204 71 314 19 40 35 84 35 97 0 38 -42 74 -85 74 -34 0
-54 -19 -357 -325 l-322 -325 -242 0 -242 0 -22 -72 c-88 -292 -311 -499 -605
-561 -46 -10 -110 -14 -185 -12 -172 4 -309 53 -450 161 -207 157 -314 387
-306 659 7 211 96 403 258 549 110 100 252 170 398 194 75 13 234 10 302 -7
134 -32 265 -101 362 -191 72 -68 110 -81 149 -50 51 40 42 95 -26 157 -119
108 -276 195 -422 234 -111 30 -335 32 -450 5 -44 -11 -84 -23 -89 -28 -6 -4
-16 -8 -23 -8 -23 0 -127 -53 -203 -104 -175 -116 -319 -310 -379 -511 -148
-498 123 -1014 619 -1178 106 -36 188 -46 320 -42 135 4 161 8 258 41 266 88
479 284 588 536 l28 68 214 0 214 0 217 219 216 219 1 -151 c1 -134 4 -163 27
-239 103 -338 345 -573 685 -665 80 -21 118 -26 222 -26 69 0 136 3 150 6 82
18 130 30 165 42 236 80 446 267 550 490 91 193 113 386 70 614 -17 92 -84
247 -147 340 -46 67 -173 191 -247 241 -228 154 -518 202 -778 130 l-64 -18
-21 42 c-42 83 -152 393 -234 665 -15 47 -29 92 -32 99 -3 8 13 3 39 -11 24
-13 82 -44 129 -69 47 -25 132 -70 190 -101 l106 -56 34 67 c19 36 36 70 38
73 2 4 -5 9 -15 12 -10 3 -52 24 -93 47 -41 23 -131 71 -200 107 -69 36 -177
94 -240 128 -63 34 -124 67 -136 73 -17 9 -23 7 -36 -16z"/>
<path d="M1899 3466 c-2 -2 -56 -8 -119 -12 -63 -4 -126 -8 -140 -10 -14 -1
-38 -2 -53 -3 -37 -1 -77 -42 -77 -78 0 -15 9 -39 20 -53 18 -24 23 -25 119
-23 55 1 111 4 125 7 17 3 26 -1 29 -12 5 -20 227 -787 266 -922 32 -110 40
-100 -90 -124 -132 -24 -136 -25 -284 -45 -194 -27 -262 -35 -370 -46 -33 -3
-85 -8 -115 -11 -74 -7 -105 -20 -119 -50 -17 -38 -13 -63 15 -91 25 -25 28
-25 117 -19 51 4 121 11 157 16 36 5 92 11 125 15 52 4 145 17 235 30 14 2 45
7 70 10 25 4 104 18 175 31 72 14 144 27 160 30 64 11 242 76 329 120 203 103
395 275 526 473 l75 112 45 -49 c25 -27 74 -82 110 -122 36 -41 83 -94 105
-119 22 -25 54 -61 71 -81 17 -19 71 -80 120 -135 49 -56 118 -134 154 -175
121 -139 145 -160 179 -160 41 0 81 39 81 78 0 25 -42 86 -90 132 -3 3 -37 41
-75 85 -39 44 -74 85 -80 91 -5 6 -35 39 -65 74 -30 35 -66 75 -80 90 -30 33
-63 71 -155 175 -38 44 -72 82 -75 85 -3 3 -70 78 -149 168 -79 90 -144 162
-146 160 -2 -2 -18 -41 -36 -88 -33 -86 -63 -147 -106 -210 -12 -19 -34 -52
-48 -73 -34 -50 -184 -205 -243 -249 -73 -56 -177 -117 -262 -153 l-78 -33
-66 231 c-37 128 -69 239 -71 247 -2 8 -20 71 -40 140 -20 69 -63 217 -96 329
-55 191 -69 228 -80 217z"/>
</g>
</svg>
