<svg xmlns:xlink="http://www.w3.org/1999/xlink" width="530" xmlns="http://www.w3.org/2000/svg" height="725" id="screenshot-729df389-512c-8068-8003-68b14a0031e3" viewBox="0 0 530 725" style="-webkit-print-color-adjust: exact;" fill="none" version="1.1"><g id="shape-729df389-512c-8068-8003-68b14a0031e3"><defs><clipPath class="frame-clip-def frame-clip" id="frame-clip-729df389-512c-8068-8003-68b14a0031e3-rumext-id-1"><rect rx="0" ry="0" x="0" y="0" width="530" height="725" transform="matrix(1.000000, 0.000000, 0.000000, 1.000000, 0.000000, 0.000000)"/></clipPath></defs><g clip-path="url(#frame-clip-729df389-512c-8068-8003-68b14a0031e3-rumext-id-1)" fill="none"><clipPath class="frame-clip-def frame-clip" id="frame-clip-729df389-512c-8068-8003-68b14a0031e3-rumext-id-1"><rect rx="0" ry="0" x="0" y="0" width="530" height="725" transform="matrix(1.000000, 0.000000, 0.000000, 1.000000, 0.000000, 0.000000)"/></clipPath><g class="fills" id="fills-729df389-512c-8068-8003-68b14a0031e3"><rect rx="0" ry="0" x="0" y="0" transform="matrix(1.000000, 0.000000, 0.000000, 1.000000, 0.000000, 0.000000)" width="530" height="725" class="frame-background"/></g><g class="frame-children"><g id="shape-8b532d4b-fdce-8015-8003-6a05ec2a20e4" rx="0" ry="0"><g id="shape-729df389-512c-8068-8003-68b14a0031e5"><g class="fills" id="fills-729df389-512c-8068-8003-68b14a0031e5"><path rx="0" ry="0" d="M265.000,0.000C411.257,0.000,530.000,118.570,530.000,264.615C530.000,419.039,284.428,725.000,265.000,725.000C245.572,725.000,0.000,419.039,0.000,264.615C0.000,118.570,118.743,0.000,265.000,0.000Z" style="fill: rgb(34, 139, 230); fill-opacity: 1;"/></g><g id="strokes-729df389-512c-8068-8003-68b14a0031e5" class="strokes"><g class="inner-stroke-shape"><defs><clipPath id="inner-stroke-rumext-id-3-729df389-512c-8068-8003-68b14a0031e5-0"><use href="#stroke-shape-rumext-id-3-729df389-512c-8068-8003-68b14a0031e5-0"/></clipPath><path rx="0" ry="0" d="M265.000,0.000C411.257,0.000,530.000,118.570,530.000,264.615C530.000,419.039,284.428,725.000,265.000,725.000C245.572,725.000,0.000,419.039,0.000,264.615C0.000,118.570,118.743,0.000,265.000,0.000Z" id="stroke-shape-rumext-id-3-729df389-512c-8068-8003-68b14a0031e5-0" style="fill: none; stroke-width: 36; stroke: rgb(37, 37, 37); stroke-opacity: 0;"/></defs><use href="#stroke-shape-rumext-id-3-729df389-512c-8068-8003-68b14a0031e5-0" clip-path="url('#inner-stroke-rumext-id-3-729df389-512c-8068-8003-68b14a0031e5-0')"/></g></g></g><g id="shape-729df389-512c-8068-8003-68b14a0031e6"><g class="fills" id="fills-729df389-512c-8068-8003-68b14a0031e6"><ellipse rx="202.5" ry="202.5" cx="265" cy="265.5" transform="matrix(1.000000, 0.000000, 0.000000, 1.000000, 0.000000, 0.000000)" style="fill: rgb(248, 249, 250); fill-opacity: 1;"/></g><g id="strokes-729df389-512c-8068-8003-68b14a0031e6" class="strokes"><g class="inner-stroke-shape" transform="matrix(1.000000, 0.000000, 0.000000, 1.000000, 0.000000, 0.000000)"><defs><clipPath id="inner-stroke-rumext-id-4-729df389-512c-8068-8003-68b14a0031e6-0"><use href="#stroke-shape-rumext-id-4-729df389-512c-8068-8003-68b14a0031e6-0"/></clipPath><ellipse rx="202.5" ry="202.5" cx="265" cy="265.5" id="stroke-shape-rumext-id-4-729df389-512c-8068-8003-68b14a0031e6-0" style="fill: none; stroke-width: 36; stroke: rgb(37, 37, 37); stroke-opacity: 0;"/></defs><use href="#stroke-shape-rumext-id-4-729df389-512c-8068-8003-68b14a0031e6-0" clip-path="url('#inner-stroke-rumext-id-4-729df389-512c-8068-8003-68b14a0031e6-0')"/></g></g></g><g id="shape-729df389-512c-8068-8003-68b14a0031e7" rx="0" ry="0"><g id="shape-729df389-512c-8068-8003-68b14a0031e8"><g class="fills" id="fills-729df389-512c-8068-8003-68b14a0031e8"><path rx="0" ry="0" d="M304.591,257.463L259.380,296.210L224.576,296.210C217.142,324.476,191.191,345.365,160.357,345.365C123.734,345.365,94.000,315.896,94.000,279.598C94.000,243.300,123.734,213.831,160.357,213.831C174.735,213.831,188.051,218.373,198.922,226.086" style="opacity: 1;"/></g><g id="strokes-729df389-512c-8068-8003-68b14a0031e8" class="strokes"><g class="stroke-shape"><path rx="0" ry="0" d="M304.591,257.463L259.380,296.210L224.576,296.210C217.142,324.476,191.191,345.365,160.357,345.365C123.734,345.365,94.000,315.896,94.000,279.598C94.000,243.300,123.734,213.831,160.357,213.831C174.735,213.831,188.051,218.373,198.922,226.086" style="opacity: 1; fill: none; stroke-width: 18; stroke: rgb(37, 37, 37); stroke-opacity: 1; stroke-linecap: round;"/></g></g></g><g id="shape-729df389-512c-8068-8003-68b14a0031e9"><g class="fills" id="fills-729df389-512c-8068-8003-68b14a0031e9"><path rx="0" ry="0" d="M161.247,281.844C161.247,281.844,215.910,277.115,241.524,269.584C289.672,255.428,305.536,211.693,305.536,211.693L366.951,281.844" style="opacity: 1;"/></g><g id="strokes-729df389-512c-8068-8003-68b14a0031e9" class="strokes"><g class="stroke-shape"><path rx="0" ry="0" d="M161.247,281.844C161.247,281.844,215.910,277.115,241.524,269.584C289.672,255.428,305.536,211.693,305.536,211.693L366.951,281.844" style="opacity: 1; fill: none; stroke-width: 18; stroke: rgb(37, 37, 37); stroke-opacity: 1; stroke-linecap: round;"/></g></g></g><g id="shape-729df389-512c-8068-8003-68b14a0031ea"><g class="fills" id="fills-729df389-512c-8068-8003-68b14a0031ea"><path rx="0" ry="0" d="M194.337,182.146L214.516,180.692L240.049,270.135" style="opacity: 1;"/></g><g id="strokes-729df389-512c-8068-8003-68b14a0031ea" class="strokes"><g class="stroke-shape"><path rx="0" ry="0" d="M194.337,182.146L214.516,180.692L240.049,270.135" style="opacity: 1; fill: none; stroke-width: 18; stroke: rgb(37, 37, 37); stroke-opacity: 1; stroke-linecap: round;"/></g></g></g><g id="shape-729df389-512c-8068-8003-68b14a0031eb"><g class="fills" id="fills-729df389-512c-8068-8003-68b14a0031eb"><path rx="0" ry="0" d="M294.346,154.335C299.913,153.936,314.041,152.820,314.041,152.820C335.630,221.372,340.249,220.018,343.492,218.807C347.286,217.389,351.192,216.330,355.157,215.631C374.653,212.196,395.570,217.484,411.507,231.798C438.823,256.333,441.232,298.151,416.884,325.126C392.535,352.100,350.590,354.081,323.275,329.547C308.976,316.705,301.502,299.127,301.118,281.421C300.941,273.286,302.261,265.123,305.104,257.381" style="opacity: 1;"/></g><g id="strokes-729df389-512c-8068-8003-68b14a0031eb" class="strokes"><g class="stroke-shape"><path rx="0" ry="0" d="M294.346,154.335C299.913,153.936,314.041,152.820,314.041,152.820C335.630,221.372,340.249,220.018,343.492,218.807C347.286,217.389,351.192,216.330,355.157,215.631C374.653,212.196,395.570,217.484,411.507,231.798C438.823,256.333,441.232,298.151,416.884,325.126C392.535,352.100,350.590,354.081,323.275,329.547C308.976,316.705,301.502,299.127,301.118,281.421C300.941,273.286,302.261,265.123,305.104,257.381" style="opacity: 1; fill: none; stroke-width: 18; stroke: rgb(37, 37, 37); stroke-opacity: 1; stroke-linecap: round;"/></g></g></g></g></g></g></g></g></svg>